<svg width="21" height="20" viewBox="0 0 21 20" fill="none" xmlns="http://www.w3.org/2000/svg">
<mask id="path-1-inside-1" fill="white">
<path d="M19.3341 1.95726C18.247 0.695126 16.7554 0 15.1336 0C13.9214 0 12.8113 0.410249 11.834 1.21926C11.3408 1.62762 10.894 2.12723 10.5 2.71036C10.1062 2.1274 9.65918 1.62762 9.16587 1.21926C8.18871 0.410249 7.07856 0 5.86636 0C4.24464 0 2.75285 0.695126 1.66578 1.95726C0.591682 3.20464 0 4.90876 0 6.75591C0 8.65708 0.661858 10.3974 2.08282 12.2329C3.35399 13.8747 5.18095 15.5415 7.29662 17.4714C8.01904 18.1306 8.83791 18.8776 9.68818 19.6734C9.9128 19.8841 10.201 20 10.5 20C10.7988 20 11.0872 19.8841 11.3115 19.6738C12.1618 18.8778 12.9811 18.1304 13.7039 17.4709C15.8192 15.5413 17.6462 13.8747 18.9173 12.2327C20.3383 10.3974 21 8.65708 21 6.75574C21 4.90876 20.4083 3.20464 19.3341 1.95726Z"/>
</mask>
<path d="M19.3341 1.95726L20.4707 0.978412L20.4706 0.978353L19.3341 1.95726ZM11.834 1.21926L10.8775 0.0637739L10.8773 0.0639412L11.834 1.21926ZM10.5 2.71036L9.25704 3.55003C9.53596 3.96291 10.0017 4.21034 10.5 4.21036C10.9982 4.21037 11.464 3.96296 11.7429 3.55009L10.5 2.71036ZM9.16587 1.21926L8.2093 2.37466L8.20937 2.37473L9.16587 1.21926ZM1.66578 1.95726L0.529231 0.978353L0.529108 0.978496L1.66578 1.95726ZM2.08282 12.2329L0.896722 13.1511L0.896757 13.1512L2.08282 12.2329ZM7.29662 17.4714L8.30761 16.3633L8.30753 16.3633L7.29662 17.4714ZM9.68818 19.6734L10.7142 18.5792L10.7132 18.5783L9.68818 19.6734ZM11.3115 19.6738L10.2864 18.5787L10.2856 18.5794L11.3115 19.6738ZM13.7039 17.4709L12.693 16.3627L12.6928 16.3629L13.7039 17.4709ZM18.9173 12.2327L17.7313 11.3144L17.7312 11.3145L18.9173 12.2327ZM20.4706 0.978353C19.1075 -0.604256 17.2055 -1.5 15.1336 -1.5V1.5C16.3052 1.5 17.3865 1.99451 18.1975 2.93617L20.4706 0.978353ZM15.1336 -1.5C13.5549 -1.5 12.1102 -0.956626 10.8775 0.0637739L12.7905 2.37474C13.5124 1.77712 14.2879 1.5 15.1336 1.5V-1.5ZM10.8773 0.0639412C10.2638 0.571981 9.72301 1.18099 9.25708 1.87062L11.7429 3.55009C12.0649 3.07346 12.4179 2.68326 12.7907 2.37457L10.8773 0.0639412ZM11.743 1.87068C11.2771 1.18114 10.7362 0.571886 10.1224 0.0637886L8.20937 2.37473C8.5822 2.68335 8.93523 3.07365 9.25704 3.55003L11.743 1.87068ZM10.1224 0.0638509C8.88985 -0.956635 7.44505 -1.5 5.86636 -1.5V1.5C6.71207 1.5 7.48757 1.77713 8.2093 2.37466L10.1224 0.0638509ZM5.86636 -1.5C3.79455 -1.5 1.89236 -0.604292 0.529231 0.978353L2.80233 2.93617C3.61335 1.99454 4.69472 1.5 5.86636 1.5V-1.5ZM0.529108 0.978496C-0.808201 2.53156 -1.5 4.59628 -1.5 6.75591H1.5C1.5 5.22123 1.99157 3.87773 2.80245 2.93602L0.529108 0.978496ZM-1.5 6.75591C-1.5 9.05779 -0.681544 11.1124 0.896722 13.1511L3.26893 11.3146C2.00526 9.68233 1.5 8.25638 1.5 6.75591H-1.5ZM0.896757 13.1512C2.26442 14.9177 4.20202 16.6788 6.2857 18.5796L8.30753 16.3633C6.15987 14.4041 4.44356 12.8318 3.26889 11.3146L0.896757 13.1512ZM6.28562 18.5795C7.00875 19.2393 7.82087 19.9803 8.66318 20.7686L10.7132 18.5783C9.85494 17.775 9.02932 17.0218 8.30761 16.3633L6.28562 18.5795ZM8.6622 20.7677C9.15563 21.2303 9.80745 21.5 10.5 21.5V18.5C10.5946 18.5 10.67 18.5378 10.7142 18.5792L8.6622 20.7677ZM10.5 21.5C11.192 21.5 11.844 21.2306 12.3374 20.7681L10.2856 18.5794C10.3304 18.5375 10.4056 18.5 10.5 18.5V21.5ZM12.3366 20.7688C13.1788 19.9804 13.9913 19.2392 14.7149 18.579L12.6928 16.3629C11.9709 17.0216 11.1447 17.7752 10.2864 18.5787L12.3366 20.7688ZM14.7148 18.5791C16.7981 16.6787 18.7357 14.9177 20.1034 13.1509L17.7312 11.3145C16.5566 12.8318 14.8403 14.4039 12.693 16.3627L14.7148 18.5791ZM20.1034 13.151C21.6818 11.1124 22.5 9.05769 22.5 6.75574H19.5C19.5 8.25648 18.9948 9.6824 17.7313 11.3144L20.1034 13.151ZM22.5 6.75574C22.5 4.59626 21.8082 2.53149 20.4707 0.978412L18.1975 2.93611C19.0084 3.87779 19.5 5.22126 19.5 6.75574H22.5Z" fill="#BBBBBB" mask="url(#path-1-inside-1)"/>
</svg>